PathFileType	4	(X/Y/Z)	27_1_40_p0_0-253.trc
DataRate	CameraRate	NumFrames	NumMarkers	Units	OrigDataRate	OrigDataStartFrame	OrigNumFrames
59.0	59.0	7	27	m	59.0	127	254
Frame#	Time	RHip			RKnee			RAnkle			RBigToe			RSmallToe			RHeel			LHip			LKnee			LAnkle			LBigToe			LSmallToe			LHeel			Neck			Head			Nose			RShoulder			RElbow			RWrist			RThumb			RIndex			RPinky			LShoulder			LElbow			LWrist			LThumb			LIndex			LPinky			
		X1	Y1	Z1	X2	Y2	Z2	X3	Y3	Z3	X4	Y4	Z4	X5	Y5	Z5	X6	Y6	Z6	X7	Y7	Z7	X8	Y8	Z8	X9	Y9	Z9	X10	Y10	Z10	X11	Y11	Z11	X12	Y12	Z12	X13	Y13	Z13	X14	Y14	Z14	X15	Y15	Z15	X16	Y16	Z16	X17	Y17	Z17	X18	Y18	Z18	X19	Y19	Z19	X20	Y20	Z20	X21	Y21	Z21	X22	Y22	Z22	X23	Y23	Z23	X24	Y24	Z24	X25	Y25	Z25	X26	Y26	Z26	X27	Y27	Z27	
127	2.152542372881356	0.13226086649103236	0.5821003019763077	0.8602687414308979	0.17537302640709002	0.7207480500922611	1.34801688976949	0.19095223681073412	0.7913043521956578	1.802936703863554	0.1354387756545454	0.5754287896342624	1.8382793015641097	0.20108251877703048	0.5854342712853019	1.8194339130839776	0.1704672008231076	0.9017718254262332	1.886409532566516	-0.08491088652352728	0.6564999527926862	0.8838696855248497	-0.059315812323774066	0.7327174460805765	1.352522345330971	-0.043981260142223595	0.8011733615241842	1.8187540147755452	-0.03932922700573929	0.5790855898718734	1.8299881883056728	-0.08291851254341531	0.6330849094307471	1.8435700628187097	-0.019647732960110697	0.8666157676152703	1.8759977423943146	0.00943079611288939	0.5660141217110809	0.3151184539847227	0.010693540646535517	0.49770913630849256	0.07656261301223097	-0.016129694714575697	0.4258212714186842	0.19721406733073424	0.16109643391709882	0.5402901616859017	0.40129202310789114	0.16724921011264793	0.5353500359955716	0.6774064849836557	0.09733132123752533	0.4673793430869009	0.9234610213130113	0.03670230908513969	0.42695634283213063	1.0153788677439881	0.03991512055345699	0.43867086237012526	1.0540016591138435	0.03695264807889787	0.43352629473328674	1.0337179998204922	-0.14724217900502526	0.5713347444630139	0.4145195554157538	-0.1655422270629431	0.5600735012192741	0.6845880820750296	-0.07758078534781451	0.46623371712821865	0.9137207997131916	0.04743461997117206	0.4127457847937836	0.9668365776506287	0.04596140741825321	0.4119364975242245	0.9899994507707287	0.0037945998277719487	0.4729037173696711	1.0453785580724757
128	2.169491525423729	0.13231564444616314	0.5821337802348036	0.8603901584740435	0.17538032838288678	0.7205119581479348	1.3477811836098799	0.19092702761239447	0.7914915674867802	1.8028123247622827	0.13648261434674985	0.602125665071334	1.8475930373255267	0.20132623917742412	0.5861996206306668	1.8195771549371276	0.17132520778920016	0.9012301926371394	1.881058117597233	-0.08854262704143749	0.6433664383429696	0.8782600341279072	-0.059399481345943785	0.7324416327157585	1.3526232169448258	-0.03967779146590037	0.8032507849936765	1.8196437292175491	-0.03943985830764246	0.5792272435152842	1.8301521990348504	-0.09100863542483834	0.6336489417325263	1.8442843989888962	-0.02042012086795911	0.8537083829055161	1.8699152707206221	0.009448664878928174	0.5660058458747425	0.31508745401235067	0.010663791796421738	0.49769572429283554	0.07652376391756706	-0.016110418905048836	0.4259577092337159	0.19721589262864986	0.16106835148823584	0.5403615393285864	0.4012913897828777	0.16724636861671816	0.5355340731511297	0.6775390563119499	0.09815881824966366	0.4687719155238633	0.9276478220515822	0.033318495151747535	0.44003344898229013	1.0223116595531834	0.03937836721004017	0.43935106903810606	1.0576832328176722	0.03693760987937745	0.4327913039499031	1.0368474003397596	-0.14729031141399515	0.5710633061886772	0.4145065727593493	-0.16498691942856084	0.5613422854928063	0.6883635956318266	-0.07752548714050791	0.4661655919478488	0.9137448629408684	0.047433167605450466	0.4129461265525934	0.9669372477520921	0.04590183825933858	0.4121074250796443	0.990040005332713	-0.0004670916650137256	0.4710020971246975	1.044630980812773
129	2.1864406779661016	0.13231441950206674	0.5821667895430076	0.8604168473019596	0.17527958507712518	0.7205779725526251	1.3480628989639316	0.1922807724862371	0.7931934289769697	1.8088963510630842	0.13761529178451692	0.6034346144262888	1.8536672587704683	0.19633624669348676	0.5847518562691428	1.819583895267029	0.17025917899274845	0.9017149901848067	1.8866382931904646	-0.08490476047875656	0.6566290243248587	0.8838912247388658	-0.05932797698954802	0.7325168914031464	1.3526369749598905	-0.03825107746676999	0.8056532969568969	1.8253799392062815	-0.039525910925153035	0.5793093854333106	1.8304342719105369	-0.08604425833411888	0.6471813861321132	1.8474051676690977	-0.015408429212002181	0.8688384792953677	1.877295915807773	0.009438094919159954	0.565927912985573	0.31505629231735915	0.01066966282902312	0.49767705893335223	0.07647177938727456	-0.016091333312571038	0.42586356419292487	0.19721614852067154	0.16104714217592853	0.5403884883965084	0.4012883110965267	0.16725113621620868	0.5354033463144462	0.6773978427633719	0.09819025137899977	0.4686285452988738	0.9276412459950819	0.032995440622617556	0.4397237579291018	1.0224475714686732	0.039704594199315164	0.4389457119988961	1.0542581218892768	0.03658991116473619	0.43392663408053217	1.0369121174601963	-0.1473268118950851	0.571054930069889	0.4144949110422756	-0.16553019643105585	0.5601445974750406	0.6845398900257534	-0.0775243847163064	0.4664657439172803	0.9138832142871143	0.04730692332505174	0.4127442700782738	0.9668638089083559	0.04671035295494835	0.41340965316643236	0.9939780231448408	0.004509588051654183	0.4737213332609339	1.0486609327448229
130	2.2033898305084745	0.13228450719479992	0.5822899165285633	0.8603241201393431	0.17509322171185812	0.7206332172074034	1.3480462843049599	0.19084626622356063	0.7914712754505364	1.8031293261383163	0.13774243062473587	0.6033626766661966	1.8533799624978835	0.19654981504923053	0.584511178581318	1.819309274450806	0.1712760261974469	0.9013057491699521	1.881245797378038	-0.08487570013041999	0.6574330670420588	0.876221873917956	-0.05476904329010487	0.7462965519506154	1.3569438458055592	-0.03825114423281114	0.8056299001928241	1.825378992918022	-0.039429726399725806	0.5792633861772349	1.8302791048674298	-0.08679542683690042	0.6473617027165688	1.8510083569738467	-0.015177020626572684	0.8680662783786379	1.8766470223831302	0.009445230764388279	0.5659522065505527	0.3150545435925471	0.010689556804497138	0.4976145402852335	0.07643346734579831	-0.016082837784231044	0.4260028681775541	0.19722104019175257	0.1609911415821351	0.540315785030752	0.4012791215418184	0.1672547230385565	0.5354320066951032	0.6773497096760264	0.09817572176748976	0.46858661805537016	0.9276230130412514	0.03650959393146979	0.42708082918119766	1.0154460736420967	0.03668962426198636	0.43938952728684205	1.0543540116902237	0.03731475449566308	0.4334772940271964	1.0342552498853126	-0.14735397620796511	0.5709452925255294	0.41447674722645933	-0.16554096088533354	0.5601474703011877	0.6844827068254974	-0.07772316945242473	0.4665065365241679	0.9137701304225315	0.04382051552292049	0.4251083262720729	0.9699384556735582	0.038425353695000164	0.424012590190971	0.993367363814322	-0.0006853668537818206	0.47068996619068315	1.0447657936060362
131	2.2203389830508473	0.1323076589344096	0.5823223305300371	0.8602265023302428	0.1752482757545641	0.7207548060162072	1.3481847654819494	0.1922738506002154	0.7934012770306823	1.808951982619782	0.137504800710288	0.6031592279775457	1.8538549864878386	0.1963157060313427	0.582715747770218	1.8229639825991606	0.1711915247475065	0.9011953889980637	1.8812432633790097	-0.0848620772442215	0.657380384388597	0.8760575160905465	-0.05959544473939806	0.7331525804866122	1.3491950015874377	-0.0381963607522764	0.8057045063326176	1.8254613794895915	-0.03938975835037994	0.579000539264892	1.8301195519454725	-0.08710551144621369	0.6190946921718656	1.8365761086685635	-0.018953953352129342	0.8561269413505787	1.8759833601366198	0.009432234251401012	0.5660814125948477	0.3150717117479999	0.010702780990679934	0.49780975403404	0.07661744241167295	-0.016124183227430536	0.42584332719123946	0.19726290268602495	0.16101192733979777	0.5404232389817764	0.4012832879497325	0.16724490957499252	0.5354703974660899	0.6774095771084723	0.09814402979513492	0.4685426082219197	0.9275916914837553	0.0365870025496676	0.4271733567666289	1.0153451778580045	0.03963497990598858	0.4274215584827046	1.05427175016953	0.03684917547181933	0.4335866840364031	1.0373746149505751	-0.1473143887786705	0.5708176008061587	0.4144666170909231	-0.16554063741283978	0.5601316167983846	0.6845168572823775	-0.07775276563834738	0.466427310289861	0.913700849989469	0.043938122538732874	0.4255251904674585	0.970030535268033	0.03842755808095111	0.42413859068050225	0.9933683662522342	-0.0006631693033145004	0.4709396458204665	1.0447447440783821
132	2.23728813559322	0.13660725051017253	0.5824970172420745	0.8602479632729939	0.17147735617045903	0.7196324639641847	1.351480246634298	0.19093918781287958	0.7914009950636675	1.8032050787887008	0.132964854199621	0.5900722827706757	1.8457234371097888	0.20161650468310974	0.5851175090166711	1.8190032460329604	0.17101816115537838	0.9201370751400322	1.8955108948215738	-0.08447743033823314	0.6563944363478134	0.8803659141478457	-0.05922275366103371	0.7325268555873928	1.3522972571275866	-0.042741523969517844	0.8032548415669475	1.8241520954608403	-0.03955362626012595	0.5786443755946633	1.829939187414747	-0.0872462728569684	0.61873045538491	1.8363589507855544	-0.021189415831668067	0.8520329309409136	1.8696426457447524	0.00926756636932198	0.5659822448770956	0.3150391118715625	0.010521859312479082	0.49755034812740817	0.07644578417031662	-0.011920904912906373	0.4267286423632331	0.20005883526700696	0.16108120946684024	0.5409114584522787	0.4013539698525905	0.16517593143830395	0.5481994714667311	0.6790452848187224	0.1024460125506308	0.4691400225170524	0.9274776993924729	0.045218316761627714	0.4378691984865925	1.0178367177855683	0.04019099603714486	0.43831244386647766	1.0538258123717565	0.03323150840745696	0.44595964470402233	1.0354420425569564	-0.1474684141563761	0.5705505216550788	0.41444679729625133	-0.16553965726541017	0.5602071753960244	0.684436867685792	-0.07759608374304615	0.4665651781365732	0.913813844340126	0.039426939549089816	0.42435278166256746	0.9667371144968894	0.038510811818016404	0.4243887692425774	0.9934150860672418	-0.0007651639953904183	0.47090599033375796	1.0449377066105805
133	2.2542372881355934	0.1416396250907113	0.5951939246382677	0.8623347254127809	0.17145395866864552	0.7195598199624715	1.3513861755740448	0.19549868709242577	0.7916630110076769	1.802932130251777	0.13302013629039844	0.5896530158526495	1.8451587146612558	0.20171263850188367	0.5845251520230998	1.818553903960164	0.17898755559095855	0.9025078791793849	1.8777200167508126	-0.08451168700561193	0.6565816582046082	0.8801477513839635	-0.05446411671185214	0.7454648303949261	1.360283683853617	-0.03958896669459024	0.8029451162396071	1.819405203089061	-0.03948309734328986	0.5791064702437785	1.8300008466986988	-0.09007661766923321	0.6326445600832858	1.8399473724073019	-0.020471560029663466	0.8532393575399099	1.8698012624425855	0.009679151991059658	0.5669789144159085	0.3186939780150202	0.014361329655507534	0.49850284457957117	0.0762049485378603	-0.012062435379545839	0.426469766644159	0.2001498912335635	0.1611040317806771	0.5407174735679875	0.40132173752288847	0.16514752978290934	0.5480887394674905	0.6790342389876736	0.10246065087646491	0.4690697313112801	0.9274834155260636	0.04130240817591329	0.43779342000858534	1.0180813150048975	0.04018770589809997	0.4383544863805984	1.0538396683928861	0.03309154466731628	0.4462950746058192	1.0352976328513013	-0.14756175595783516	0.5704809494818971	0.4144737100729843	-0.1655005009141935	0.5601434470477564	0.684491355057801	-0.07751623945965094	0.46661522290062996	0.9138563301122791	0.04244171553238916	0.4118747670390928	0.963604457184406	0.0342047328522796	0.42384422399450283	0.9933952301604713	-0.0006808618170080907	0.4708403095504499	1.0448099970998557
